<svg xmlns="http://www.w3.org/2000/svg" xmlns:xlink="http://www.w3.org/1999/xlink" contentStyleType="text/css" data-diagram-type="ACTIVITY" height="561px" preserveAspectRatio="none" style="width:283px;height:561px;background:#FFFFFF;" version="1.1" viewBox="0 0 283 561" width="283px" zoomAndPan="magnify"><title>Methodology: Iterative Design</title><defs/><g><g class="title" data-source-line="1"><text fill="#000000" font-family="sans-serif" font-size="14" font-weight="bold" lengthAdjust="spacing" textLength="240.3516" x="20" y="32.9951">Methodology: Iterative Design</text></g><ellipse cx="139.3906" cy="57.2969" fill="#222222" rx="10" ry="10" style="stroke:#222222;stroke-width:1;"/><rect fill="#F1F1F1" height="33.9688" rx="12.5" ry="12.5" style="stroke:#181818;stroke-width:0.5;" width="167.8789" x="55.4512" y="87.2969"/><text fill="#000000" font-family="sans-serif" font-size="12" lengthAdjust="spacing" textLength="147.8789" x="65.4512" y="108.4355">Requirements Gathering</text><rect fill="#F1F1F1" height="33.9688" rx="12.5" ry="12.5" style="stroke:#181818;stroke-width:0.5;" width="134" x="72.3906" y="141.2656"/><text fill="#000000" font-family="sans-serif" font-size="12" lengthAdjust="spacing" textLength="114" x="82.3906" y="162.4043">Use Case Modeling</text><rect fill="#F1F1F1" height="33.9688" rx="12.5" ry="12.5" style="stroke:#181818;stroke-width:0.5;" width="124.9648" x="76.9082" y="195.2344"/><text fill="#000000" font-family="sans-serif" font-size="12" lengthAdjust="spacing" textLength="104.9648" x="86.9082" y="216.373">Domain Modeling</text><rect fill="#F1F1F1" height="33.9688" rx="12.5" ry="12.5" style="stroke:#181818;stroke-width:0.5;" width="123.0195" x="77.8809" y="293.2031"/><text fill="#000000" font-family="sans-serif" font-size="12" lengthAdjust="spacing" textLength="103.0195" x="87.8809" y="314.3418">Design Diagrams</text><rect fill="#F1F1F1" height="33.9688" rx="12.5" ry="12.5" style="stroke:#181818;stroke-width:0.5;" width="118.6074" x="80.0869" y="354.6719"/><text fill="#000000" font-family="sans-serif" font-size="12" lengthAdjust="spacing" textLength="98.6074" x="90.0869" y="375.8105">Review &amp; Refine</text><polygon fill="#F1F1F1" points="139.3906,249.2031,151.3906,261.2031,139.3906,273.2031,127.3906,261.2031,139.3906,249.2031" style="stroke:#181818;stroke-width:0.5;"/><polygon fill="#F1F1F1" points="109.9705,408.6406,168.8108,408.6406,180.8108,420.6406,168.8108,432.6406,109.9705,432.6406,97.9705,420.6406,109.9705,408.6406" style="stroke:#181818;stroke-width:0.5;"/><text fill="#000000" font-family="sans-serif" font-size="11" lengthAdjust="spacing" textLength="58.8403" x="109.9705" y="424.4487">Approved?</text><text fill="#000000" font-family="sans-serif" font-size="11" lengthAdjust="spacing" textLength="14.9585" x="180.8108" y="418.0464">No</text><rect fill="#F1F1F1" height="33.9688" rx="12.5" ry="12.5" style="stroke:#181818;stroke-width:0.5;" width="144.8516" x="66.9648" y="474.0396"/><text fill="#000000" font-family="sans-serif" font-size="12" lengthAdjust="spacing" textLength="124.8516" x="76.9648" y="495.1782">Final Documentation</text><ellipse cx="139.3906" cy="539.0083" fill="none" rx="11" ry="11" style="stroke:#222222;stroke-width:1;"/><ellipse cx="139.3906" cy="539.0083" fill="#222222" rx="6" ry="6" style="stroke:#222222;stroke-width:1;"/><line style="stroke:#181818;stroke-width:1;" x1="139.3906" x2="139.3906" y1="67.2969" y2="87.2969"/><polygon fill="#181818" points="135.3906,77.2969,139.3906,87.2969,143.3906,77.2969,139.3906,81.2969" style="stroke:#181818;stroke-width:1;"/><line style="stroke:#181818;stroke-width:1;" x1="139.3906" x2="139.3906" y1="121.2656" y2="141.2656"/><polygon fill="#181818" points="135.3906,131.2656,139.3906,141.2656,143.3906,131.2656,139.3906,135.2656" style="stroke:#181818;stroke-width:1;"/><line style="stroke:#181818;stroke-width:1;" x1="139.3906" x2="139.3906" y1="175.2344" y2="195.2344"/><polygon fill="#181818" points="135.3906,185.2344,139.3906,195.2344,143.3906,185.2344,139.3906,189.2344" style="stroke:#181818;stroke-width:1;"/><line style="stroke:#181818;stroke-width:1;" x1="139.3906" x2="139.3906" y1="327.1719" y2="354.6719"/><polygon fill="#181818" points="135.3906,344.6719,139.3906,354.6719,143.3906,344.6719,139.3906,348.6719" style="stroke:#181818;stroke-width:1;"/><line style="stroke:#181818;stroke-width:1;" x1="139.3906" x2="139.3906" y1="273.2031" y2="293.2031"/><polygon fill="#181818" points="135.3906,283.2031,139.3906,293.2031,143.3906,283.2031,139.3906,287.2031" style="stroke:#181818;stroke-width:1;"/><line style="stroke:#181818;stroke-width:1;" x1="180.8108" x2="212.9004" y1="420.6406" y2="420.6406"/><polygon fill="#181818" points="208.9004,347.1719,212.9004,337.1719,216.9004,347.1719,212.9004,343.1719" style="stroke:#181818;stroke-width:1;"/><line style="stroke:#181818;stroke-width:1;" x1="212.9004" x2="212.9004" y1="261.2031" y2="420.6406"/><line style="stroke:#181818;stroke-width:1;" x1="212.9004" x2="151.3906" y1="261.2031" y2="261.2031"/><polygon fill="#181818" points="161.3906,257.2031,151.3906,261.2031,161.3906,265.2031,157.3906,261.2031" style="stroke:#181818;stroke-width:1;"/><line style="stroke:#181818;stroke-width:1;" x1="139.3906" x2="139.3906" y1="388.6406" y2="408.6406"/><polygon fill="#181818" points="135.3906,398.6406,139.3906,408.6406,143.3906,398.6406,139.3906,402.6406" style="stroke:#181818;stroke-width:1;"/><line style="stroke:#181818;stroke-width:1;" x1="139.3906" x2="139.3906" y1="229.2031" y2="249.2031"/><polygon fill="#181818" points="135.3906,239.2031,139.3906,249.2031,143.3906,239.2031,139.3906,243.2031" style="stroke:#181818;stroke-width:1;"/><line style="stroke:#181818;stroke-width:1;" x1="139.3906" x2="139.3906" y1="432.6406" y2="474.0396"/><polygon fill="#181818" points="135.3906,464.0396,139.3906,474.0396,143.3906,464.0396,139.3906,468.0396" style="stroke:#181818;stroke-width:1;"/><text fill="#000000" font-family="sans-serif" font-size="11" lengthAdjust="spacing" textLength="19.2178" x="143.3906" y="453.9453">Yes</text><line style="stroke:#181818;stroke-width:1;" x1="139.3906" x2="139.3906" y1="508.0083" y2="528.0083"/><polygon fill="#181818" points="135.3906,518.0083,139.3906,528.0083,143.3906,518.0083,139.3906,522.0083" style="stroke:#181818;stroke-width:1;"/><!--SRC=[JOwn2i9044Jx-ugjH0j_u0AA61GBBG8MbeiPauNaDjvj4lnxJqImcU8nCpmJwq1dMAkrTjgyF9qCaKqcK8aaJN0k6KTpli9pb8WUmH8TsLf42KtX_3M1zfpZh3MwBokrPmb_9680coFotrigXPl8VIe-hC8ac6b15HuIyAlJt4hsM-w68Ug4UhiYIRIywCgjDpVahJz8u8vAlOyViIokeSZ6Ehm1]--></g></svg>