<svg xmlns="http://www.w3.org/2000/svg" xmlns:xlink="http://www.w3.org/1999/xlink" contentStyleType="text/css" data-diagram-type="DESCRIPTION" height="253px" preserveAspectRatio="none" style="width:1736px;height:253px;background:#FFFFFF;" version="1.1" viewBox="0 0 1736 253" width="1736px" zoomAndPan="magnify"><title>Project Scope: Inclusions and Exclusions</title><defs/><g><g class="title" data-source-line="1"><text fill="#000000" font-family="sans-serif" font-size="14" font-weight="bold" lengthAdjust="spacing" textLength="320.1133" x="700.9434" y="22.9951">Project Scope: Inclusions and Exclusions</text></g><!--cluster IN SCOPE--><g class="cluster" data-qualified-name="IN SCOPE" data-source-line="3" id="ent0002"><path d="M8.5,43.2969 L83.3828,43.2969 A3.75,3.75 0 0 1 85.8828,45.7969 L92.8828,65.5938 L1175.5,65.5938 A2.5,2.5 0 0 1 1178,68.0938 L1178,138.0869 A2.5,2.5 0 0 1 1175.5,140.5869 L8.5,140.5869 A2.5,2.5 0 0 1 6,138.0869 L6,45.7969 A2.5,2.5 0 0 1 8.5,43.2969" fill="none" style="stroke:#000000;stroke-width:1.5;"/><line style="stroke:#000000;stroke-width:1.5;" x1="6" x2="92.8828" y1="65.5938" y2="65.5938"/><text fill="#000000" font-family="sans-serif" font-size="14" font-weight="bold" lengthAdjust="spacing" textLength="73.8828" x="10" y="58.292">IN SCOPE</text></g><!--cluster OUT OF SCOPE--><g class="cluster" data-qualified-name="OUT OF SCOPE" data-source-line="11" id="ent0008"><path d="M1204.5,43.2969 L1321.6152,43.2969 A3.75,3.75 0 0 1 1324.1152,45.7969 L1331.1152,65.5938 L1726.5,65.5938 A2.5,2.5 0 0 1 1729,68.0938 L1729,244.3869 A2.5,2.5 0 0 1 1726.5,246.8869 L1204.5,246.8869 A2.5,2.5 0 0 1 1202,244.3869 L1202,45.7969 A2.5,2.5 0 0 1 1204.5,43.2969" fill="none" style="stroke:#000000;stroke-width:1.5;"/><line style="stroke:#000000;stroke-width:1.5;" x1="1202" x2="1331.1152" y1="65.5938" y2="65.5938"/><text fill="#000000" font-family="sans-serif" font-size="14" font-weight="bold" lengthAdjust="spacing" textLength="116.1152" x="1206" y="58.292">OUT OF SCOPE</text></g><!--entity PM--><g class="entity" data-qualified-name="IN SCOPE.PM" data-source-line="4" id="ent0003"><rect fill="#F1F1F1" height="46.2969" rx="2.5" ry="2.5" style="stroke:#181818;stroke-width:0.5;" width="177.3955" x="22.3" y="78.2969"/><rect fill="#F1F1F1" height="10" style="stroke:#181818;stroke-width:0.5;" width="15" x="179.6955" y="83.2969"/><rect fill="#F1F1F1" height="2" style="stroke:#181818;stroke-width:0.5;" width="4" x="177.6955" y="85.2969"/><rect fill="#F1F1F1" height="2" style="stroke:#181818;stroke-width:0.5;" width="4" x="177.6955" y="89.2969"/><text fill="#000000" font-family="sans-serif" font-size="14" lengthAdjust="spacing" textLength="137.3955" x="37.3" y="111.292">Patrol Management</text></g><!--entity ICR--><g class="entity" data-qualified-name="IN SCOPE.ICR" data-source-line="5" id="ent0004"><rect fill="#F1F1F1" height="46.2969" rx="2.5" ry="2.5" style="stroke:#181818;stroke-width:0.5;" width="246.5" x="234.75" y="78.2969"/><rect fill="#F1F1F1" height="10" style="stroke:#181818;stroke-width:0.5;" width="15" x="461.25" y="83.2969"/><rect fill="#F1F1F1" height="2" style="stroke:#181818;stroke-width:0.5;" width="4" x="459.25" y="85.2969"/><rect fill="#F1F1F1" height="2" style="stroke:#181818;stroke-width:0.5;" width="4" x="459.25" y="89.2969"/><text fill="#000000" font-family="sans-serif" font-size="14" lengthAdjust="spacing" textLength="206.5" x="249.75" y="111.292">Incident and Crime Reporting</text></g><!--entity CI--><g class="entity" data-qualified-name="IN SCOPE.CI" data-source-line="6" id="ent0005"><rect fill="#F1F1F1" height="46.2969" rx="2.5" ry="2.5" style="stroke:#181818;stroke-width:0.5;" width="169.5684" x="516.22" y="78.2969"/><rect fill="#F1F1F1" height="10" style="stroke:#181818;stroke-width:0.5;" width="15" x="665.7884" y="83.2969"/><rect fill="#F1F1F1" height="2" style="stroke:#181818;stroke-width:0.5;" width="4" x="663.7884" y="85.2969"/><rect fill="#F1F1F1" height="2" style="stroke:#181818;stroke-width:0.5;" width="4" x="663.7884" y="89.2969"/><text fill="#000000" font-family="sans-serif" font-size="14" lengthAdjust="spacing" textLength="129.5684" x="531.22" y="111.292">Case Investigation</text></g><!--entity EM--><g class="entity" data-qualified-name="IN SCOPE.EM" data-source-line="7" id="ent0006"><rect fill="#F1F1F1" height="46.2969" rx="2.5" ry="2.5" style="stroke:#181818;stroke-width:0.5;" width="200.3779" x="720.81" y="78.2969"/><rect fill="#F1F1F1" height="10" style="stroke:#181818;stroke-width:0.5;" width="15" x="901.1879" y="83.2969"/><rect fill="#F1F1F1" height="2" style="stroke:#181818;stroke-width:0.5;" width="4" x="899.1879" y="85.2969"/><rect fill="#F1F1F1" height="2" style="stroke:#181818;stroke-width:0.5;" width="4" x="899.1879" y="89.2969"/><text fill="#000000" font-family="sans-serif" font-size="14" lengthAdjust="spacing" textLength="160.3779" x="735.81" y="111.292">Evidence Management</text></g><!--entity PSM--><g class="entity" data-qualified-name="IN SCOPE.PSM" data-source-line="8" id="ent0007"><rect fill="#F1F1F1" height="46.2969" rx="2.5" ry="2.5" style="stroke:#181818;stroke-width:0.5;" width="205.5938" x="956.2" y="78.2969"/><rect fill="#F1F1F1" height="10" style="stroke:#181818;stroke-width:0.5;" width="15" x="1141.7938" y="83.2969"/><rect fill="#F1F1F1" height="2" style="stroke:#181818;stroke-width:0.5;" width="4" x="1139.7938" y="85.2969"/><rect fill="#F1F1F1" height="2" style="stroke:#181818;stroke-width:0.5;" width="4" x="1139.7938" y="89.2969"/><text fill="#000000" font-family="sans-serif" font-size="14" lengthAdjust="spacing" textLength="165.5938" x="971.2" y="111.292">Personnel Management</text></g><!--entity NSO--><g class="entity" data-qualified-name="OUT OF SCOPE.NSO" data-source-line="12" id="ent0009"><rect fill="#F1F1F1" height="46.2969" rx="2.5" ry="2.5" style="stroke:#181818;stroke-width:0.5;" width="191.9287" x="1246.04" y="78.2969"/><rect fill="#F1F1F1" height="10" style="stroke:#181818;stroke-width:0.5;" width="15" x="1417.9687" y="83.2969"/><rect fill="#F1F1F1" height="2" style="stroke:#181818;stroke-width:0.5;" width="4" x="1415.9687" y="85.2969"/><rect fill="#F1F1F1" height="2" style="stroke:#181818;stroke-width:0.5;" width="4" x="1415.9687" y="89.2969"/><text fill="#000000" font-family="sans-serif" font-size="14" lengthAdjust="spacing" textLength="151.9287" x="1261.04" y="111.292">National Security Ops</text></g><!--entity FRS--><g class="entity" data-qualified-name="OUT OF SCOPE.FRS" data-source-line="13" id="ent0010"><rect fill="#F1F1F1" height="46.2969" rx="2.5" ry="2.5" style="stroke:#181818;stroke-width:0.5;" width="232.1582" x="1472.92" y="78.2969"/><rect fill="#F1F1F1" height="10" style="stroke:#181818;stroke-width:0.5;" width="15" x="1685.0782" y="83.2969"/><rect fill="#F1F1F1" height="2" style="stroke:#181818;stroke-width:0.5;" width="4" x="1683.0782" y="85.2969"/><rect fill="#F1F1F1" height="2" style="stroke:#181818;stroke-width:0.5;" width="4" x="1683.0782" y="89.2969"/><text fill="#000000" font-family="sans-serif" font-size="14" lengthAdjust="spacing" textLength="192.1582" x="1487.92" y="111.292">Facial Recognition Systems</text></g><!--entity PPA--><g class="entity" data-qualified-name="OUT OF SCOPE.PPA" data-source-line="14" id="ent0011"><rect fill="#F1F1F1" height="46.2969" rx="2.5" ry="2.5" style="stroke:#181818;stroke-width:0.5;" width="248.4551" x="1217.77" y="184.5869"/><rect fill="#F1F1F1" height="10" style="stroke:#181818;stroke-width:0.5;" width="15" x="1446.2251" y="189.5869"/><rect fill="#F1F1F1" height="2" style="stroke:#181818;stroke-width:0.5;" width="4" x="1444.2251" y="191.5869"/><rect fill="#F1F1F1" height="2" style="stroke:#181818;stroke-width:0.5;" width="4" x="1444.2251" y="195.5869"/><text fill="#000000" font-family="sans-serif" font-size="14" lengthAdjust="spacing" textLength="208.4551" x="1232.77" y="217.582">Predictive Policing Algorithms</text></g><!--entity IOO--><g class="entity" data-qualified-name="OUT OF SCOPE.IOO" data-source-line="15" id="ent0012"><rect fill="#F1F1F1" height="46.2969" rx="2.5" ry="2.5" style="stroke:#181818;stroke-width:0.5;" width="211.7803" x="1501.11" y="184.5869"/><rect fill="#F1F1F1" height="10" style="stroke:#181818;stroke-width:0.5;" width="15" x="1692.8903" y="189.5869"/><rect fill="#F1F1F1" height="2" style="stroke:#181818;stroke-width:0.5;" width="4" x="1690.8903" y="191.5869"/><rect fill="#F1F1F1" height="2" style="stroke:#181818;stroke-width:0.5;" width="4" x="1690.8903" y="195.5869"/><text fill="#000000" font-family="sans-serif" font-size="14" lengthAdjust="spacing" textLength="171.7803" x="1516.11" y="217.582">Inter-Organizational Ops</text></g><!--link PM to ICR--><!--link ICR to CI--><!--link CI to EM--><!--link EM to PSM--><!--SRC=[PL11ReCm4BppYbNk-K1l4GA90zZ2xIdAmJ8hiYtOo7PGqwf_xzef4cqFFgndTcPs8iK9GNhtYYQ2Ccx19sYicMw1d0sWxG3L-pOMnQBDcnuH3aq7gXIoEi1d0N2MEdetGQijepFQU04TGBO9OpaQ-2kBbPvcX1uNvoFPCTEQia-yKWTaxnL3f557DinesIImMfE6mRyMLRQGw8Ep5lydK6tnjOijNfv1rB-YTzbAJw3Gt3p5EuWbvELEYKIejI66UpHkj9J8eEuXulnWrRtA4JmEP2AjNAURoF1nS9f6nuhN7wQKfqSV4VrH-55R-jZCDyz6Y1HOjd0yNsdWco-v7twx7-waR7Opjr3jD_ZiRm00]--></g></svg>