<svg xmlns="http://www.w3.org/2000/svg" xmlns:xlink="http://www.w3.org/1999/xlink" contentStyleType="text/css" data-diagram-type="DESCRIPTION" height="573px" preserveAspectRatio="none" style="width:384px;height:573px;background:#FFFFFF;" version="1.1" viewBox="0 0 384 573" width="384px" zoomAndPan="magnify"><title>Overall System Use Cases</title><defs/><g><g class="title" data-source-line="1"><text fill="#000000" font-family="sans-serif" font-size="14" font-weight="bold" lengthAdjust="spacing" textLength="204.4902" x="82.8799" y="22.9951">Overall System Use Cases</text></g><!--cluster Police Organization System--><g class="cluster" data-qualified-name="Police Organization System" data-source-line="10" id="ent0007"><rect fill="none" height="428" rx="2.5" ry="2.5" style="stroke:#181818;stroke-width:1;" width="232.57" x="145.68" y="44.2969"/><text fill="#000000" font-family="sans-serif" font-size="14" font-weight="bold" lengthAdjust="spacing" textLength="217.0479" x="153.4411" y="59.292">Police Organization System</text></g><!--entity UC1--><g class="entity" data-qualified-name="Police Organization System.UC1" data-source-line="11" id="ent0008"><ellipse cx="261.9614" cy="368.3012" fill="#F1F1F1" rx="70.6214" ry="16.5243" style="stroke:#181818;stroke-width:0.5;"/><text fill="#000000" font-family="sans-serif" font-size="14" lengthAdjust="spacing" textLength="107.9395" x="207.9917" y="372.9496">Report Incident</text></g><!--entity UC2--><g class="entity" data-qualified-name="Police Organization System.UC2" data-source-line="12" id="ent0009"><ellipse cx="261.9565" cy="231.3002" fill="#F1F1F1" rx="65.3665" ry="15.4733" style="stroke:#181818;stroke-width:0.5;"/><text fill="#000000" font-family="sans-serif" font-size="14" lengthAdjust="spacing" textLength="94.4385" x="214.7373" y="235.9486">Dispatch Unit</text></g><!--entity UC3--><g class="entity" data-qualified-name="Police Organization System.UC3" data-source-line="13" id="ent0010"><ellipse cx="261.9601" cy="164.2949" fill="#F1F1F1" rx="68.5401" ry="16.108" style="stroke:#181818;stroke-width:0.5;"/><text fill="#000000" font-family="sans-serif" font-size="14" lengthAdjust="spacing" textLength="102.6758" x="210.6222" y="168.9433">Arrest Suspect</text></g><!--entity UC4--><g class="entity" data-qualified-name="Police Organization System.UC4" data-source-line="14" id="ent0011"><ellipse cx="261.9593" cy="299.2927" fill="#F1F1F1" rx="74.2293" ry="17.2459" style="stroke:#181818;stroke-width:0.5;"/><text fill="#000000" font-family="sans-serif" font-size="14" lengthAdjust="spacing" textLength="116.8535" x="203.5325" y="303.9412">Investigate Case</text></g><!--entity UC5--><g class="entity" data-qualified-name="Police Organization System.UC5" data-source-line="15" id="ent0012"><ellipse cx="261.9618" cy="438.2932" fill="#F1F1F1" rx="79.2818" ry="18.2564" style="stroke:#181818;stroke-width:0.5;"/><text fill="#000000" font-family="sans-serif" font-size="14" lengthAdjust="spacing" textLength="128.9805" x="197.4716" y="442.9417">Manage Personnel</text></g><!--entity UC6--><g class="entity" data-qualified-name="Police Organization System.UC6" data-source-line="16" id="ent0013"><ellipse cx="261.9577" cy="96.2944" fill="#F1F1F1" rx="74.2377" ry="17.2475" style="stroke:#181818;stroke-width:0.5;"/><text fill="#000000" font-family="sans-serif" font-size="14" lengthAdjust="spacing" textLength="116.874" x="203.5207" y="100.9429">Generate Report</text></g><!--entity O--><g class="entity" data-qualified-name="O" data-source-line="4" id="ent0002"><ellipse cx="53.8365" cy="56.6469" fill="#F1F1F1" rx="8" ry="8" style="stroke:#181818;stroke-width:0.5;"/><path d="M53.8365,64.6469 L53.8365,91.6469 M40.8365,72.6469 L66.8365,72.6469 M53.8365,91.6469 L40.8365,106.6469 M53.8365,91.6469 L66.8365,106.6469" fill="none" style="stroke:#181818;stroke-width:0.5;"/><text fill="#000000" font-family="sans-serif" font-size="14" lengthAdjust="spacing" textLength="46.833" x="30.42" y="121.142">Officer</text></g><!--entity D--><g class="entity" data-qualified-name="D" data-source-line="5" id="ent0003"><ellipse cx="53.8392" cy="167.6469" fill="#F1F1F1" rx="8" ry="8" style="stroke:#181818;stroke-width:0.5;"/><path d="M53.8392,175.6469 L53.8392,202.6469 M40.8392,183.6469 L66.8392,183.6469 M53.8392,202.6469 L40.8392,217.6469 M53.8392,202.6469 L66.8392,217.6469" fill="none" style="stroke:#181818;stroke-width:0.5;"/><text fill="#000000" font-family="sans-serif" font-size="14" lengthAdjust="spacing" textLength="75.8584" x="15.91" y="232.142">Dispatcher</text></g><!--entity DE--><g class="entity" data-qualified-name="DE" data-source-line="6" id="ent0004"><ellipse cx="53.8454" cy="278.6469" fill="#F1F1F1" rx="8" ry="8" style="stroke:#181818;stroke-width:0.5;"/><path d="M53.8454,286.6469 L53.8454,313.6469 M40.8454,294.6469 L66.8454,294.6469 M53.8454,313.6469 L40.8454,328.6469 M53.8454,313.6469 L66.8454,328.6469" fill="none" style="stroke:#181818;stroke-width:0.5;"/><text fill="#000000" font-family="sans-serif" font-size="14" lengthAdjust="spacing" textLength="67.4707" x="20.11" y="343.142">Detective</text></g><!--entity C--><g class="entity" data-qualified-name="C" data-source-line="7" id="ent0005"><ellipse cx="53.8456" cy="389.6469" fill="#F1F1F1" rx="8" ry="8" style="stroke:#181818;stroke-width:0.5;"/><path d="M53.8456,397.6469 L53.8456,424.6469 M40.8456,405.6469 L66.8456,405.6469 M53.8456,424.6469 L40.8456,439.6469 M53.8456,424.6469 L66.8456,439.6469" fill="none" style="stroke:#181818;stroke-width:0.5;"/><text fill="#000000" font-family="sans-serif" font-size="14" lengthAdjust="spacing" textLength="51.0713" x="28.31" y="454.142">Civilian</text></g><!--entity A--><g class="entity" data-qualified-name="A" data-source-line="8" id="ent0006"><ellipse cx="53.8413" cy="500.6469" fill="#F1F1F1" rx="8" ry="8" style="stroke:#181818;stroke-width:0.5;"/><path d="M53.8413,508.6469 L53.8413,535.6469 M40.8413,516.6469 L66.8413,516.6469 M53.8413,535.6469 L40.8413,550.6469 M53.8413,535.6469 L66.8413,550.6469" fill="none" style="stroke:#181818;stroke-width:0.5;"/><text fill="#000000" font-family="sans-serif" font-size="14" lengthAdjust="spacing" textLength="95.6826" x="6" y="565.142">Administrator</text></g><!--link C to UC1--><g class="link" data-entity-1="ent0005" data-entity-2="ent0008" data-link-type="dependency" data-source-line="19" id="lnk14"><path d="M79.7,413.1469 C112.36,405.0669 164.6057,392.1383 206.2257,381.8383" fill="none" id="C-to-UC1" style="stroke:#181818;stroke-width:1;"/><polygon fill="#181818" points="212.05,380.3969,202.3526,378.6761,207.1964,381.598,204.2745,386.4418,212.05,380.3969" style="stroke:#181818;stroke-width:1;"/></g><!--link D to UC2--><g class="link" data-entity-1="ent0003" data-entity-2="ent0009" data-link-type="dependency" data-source-line="20" id="lnk15"><path d="M92.17,203.4569 C124.3,208.7569 165.1501,215.4898 201.3201,221.4598" fill="none" id="D-to-UC2" style="stroke:#181818;stroke-width:1;"/><polygon fill="#181818" points="207.24,222.4369,199.0115,217.0246,202.3067,221.6226,197.7087,224.9178,207.24,222.4369" style="stroke:#181818;stroke-width:1;"/></g><!--link O to UC3--><g class="link" data-entity-1="ent0002" data-entity-2="ent0010" data-link-type="dependency" data-source-line="21" id="lnk16"><path d="M77.69,100.6269 C93.94,110.3269 116.55,122.8669 137.68,131.2969 C160.73,140.4969 181.3812,146.534 203.8712,152.024" fill="none" id="O-to-UC3" style="stroke:#181818;stroke-width:1;"/><polygon fill="#181818" points="209.7,153.4469,201.9053,147.4267,204.8426,152.2611,200.0082,155.1985,209.7,153.4469" style="stroke:#181818;stroke-width:1;"/></g><!--link DE to UC4--><g class="link" data-entity-1="ent0004" data-entity-2="ent0011" data-link-type="dependency" data-source-line="22" id="lnk17"><path d="M87.96,306.8569 C115.04,305.6669 148.3357,304.2191 182.6257,302.7191" fill="none" id="DE-to-UC4" style="stroke:#181818;stroke-width:1;"/><polygon fill="#181818" points="188.62,302.4569,179.4538,298.854,183.6248,302.6754,179.8034,306.8464,188.62,302.4569" style="stroke:#181818;stroke-width:1;"/></g><!--link A to UC5--><g class="link" data-entity-1="ent0006" data-entity-2="ent0012" data-link-type="dependency" data-source-line="23" id="lnk18"><path d="M102.13,509.1869 C139.21,492.6369 184.6006,472.3816 218.6906,457.1716" fill="none" id="A-to-UC5" style="stroke:#181818;stroke-width:1;"/><polygon fill="#181818" points="224.17,454.7269,214.3212,454.7411,219.6039,456.7642,217.5808,462.0469,224.17,454.7269" style="stroke:#181818;stroke-width:1;"/></g><!--link O to UC6--><g class="link" data-entity-1="ent0002" data-entity-2="ent0013" data-link-type="dependency" data-source-line="24" id="lnk19"><path d="M77.69,87.4069 C104.42,88.7069 143.987,90.6265 182.997,92.5165" fill="none" id="O-to-UC6" style="stroke:#181818;stroke-width:1;"/><polygon fill="#181818" points="188.99,92.8069,180.1941,88.376,183.9959,92.5649,179.807,96.3667,188.99,92.8069" style="stroke:#181818;stroke-width:1;"/></g><!--SRC=[FP1DQyCm38Rl_XKYf-tGm_fr78Iab1v6oaf-W4YKLE0gmTO2szX_dvqulRr-7cIzI5ajGJMHGslXzksL7b1xWW8zUMCiTGewWEF-hj2oeqPv48ED3Wwogkku8PS1UgXMMB8VKPjxukMJayRfYHPyMdd14rj6cN6nqhnziB1NX-4vgzoOk1wb3vMpws33QgXSZy8_65kb_Xdy6e2NJne7ft2HXbiIVOrVrCLRL6j3g8LNiOqYTuwymktBZs5JChjeBZ85mptgSflazj5ze61FS2Nd1n6ooHsYEvE4suQXfKvIH_DdJ06RpVjSgKnfQwgKTgOyfRWtUKg7fpx-0m00]--></g></svg>